<svg version="1.1" id="Layer_1" xmlns="http://www.w3.org/2000/svg" x="0" y="0" viewBox="0 0 477 590" style="enable-background:new 0 0 477 590" xml:space="preserve"><path d="m318 0 38.5 12.4L391 29.2 419 46l21.5 28.7 17.5 46 6.5 34.2-3.6 11.4-5.6 10.4-14.8 19.8-3 23.3v23.3l15 8.4 10.5 10.9 4 11.4 1.5 10.4L470 307l7 48.5-1.5 15.3-1.5 15.3-4.2 14.9-4.2 14.9-11.7 11.1-11.6 11.1-27.8 20.8-30.2 9.2-34.8 7.7L323 501l-29.5 29.2-21.5 30.2-22.5 13.9-18.5 15.3H10V516.3l8-46 11.5-53 2-70.8L12 307 0 271.8v-33.7l12-39.6 8.8-25.7L31.5 149 55 131.4l26-16.1 37-9.9 18.8-4.2 16.8-5.2 13-24.8L179 46l19-17 23-15.1L246 5l23-5h49z" style="fill:#fff"/></svg>