<svg aria-hidden="true" style="width:0;height:0;position:absolute;overflow:hidden" xmlns="http://www.w3.org/2000/svg"><defs><symbol id="facebook" viewBox="0 0 16 32"><path d="M14.143 15.972h-4.034v14.865H3.997V15.972H1.09v-5.224h2.907V7.367c0-2.418 1.142-6.203 6.166-6.203l4.527.019v5.071h-3.285c-.539 0-1.296.271-1.296 1.424v3.075h4.567l-.534 5.219z"/></symbol><symbol id="github" viewBox="0 0 32 32"><path d="M16 0C7.212 0 0 7.212 0 16c0 7.499 5.262 14.312 12.25 16v-5.293c-.692.152-1.33.156-2.034-.052-.946-.279-1.714-.909-2.284-1.869-.364-.613-1.008-1.278-1.68-1.23l-.165-1.868c1.453-.124 2.711.886 3.457 2.14.332.558.713.884 1.203 1.029.473.14.982.072 1.574-.137.149-1.186.692-1.63 1.102-2.255-4.167-.622-5.828-2.833-6.488-4.579-.874-2.317-.405-5.212 1.14-7.041.03-.036.084-.129.063-.194-.708-2.139.155-3.909.187-4.097.817.242.95-.243 3.551 1.337l.449.27c.188.112.129.048.317.034A13.544 13.544 0 0 1 16 7.723c1.136.015 2.273.178 3.404.484l.145.015c-.013-.002.04-.009.127-.062 3.248-1.968 3.132-1.324 4.003-1.608.032.188.883 1.987.182 4.099-.095.291 2.816 2.956 1.203 7.235-.659 1.746-2.32 3.957-6.487 4.578.534.814 1.176 1.248 1.173 2.928V32C26.738 30.312 32 23.499 32 16c0-8.788-7.212-16-16-16z"/></symbol><symbol id="telegram" viewBox="0 0 44 32"><path d="m17.343 21.048-.675 8.86c.966 0 1.384-.387 1.885-.852l4.527-4.038 9.381 6.412c1.72.895 2.933.424 3.397-1.477l6.157-26.929.002-.002c.546-2.374-.92-3.302-2.596-2.72L3.227 13.235c-2.47.895-2.433 2.18-.42 2.762l9.253 2.686L33.554 6.131c1.012-.625 1.931-.279 1.175.346l-17.386 14.57z"/></symbol><symbol id="arrow-default" viewBox="0 0 82 32"><path d="M81.414 17.414a2 2 0 0 0 0-2.828L68.686 1.858a2 2 0 1 0-2.828 2.828L77.172 16 65.858 27.314a2 2 0 1 0 2.828 2.828l12.728-12.728zM0 18h80v-4H0v4z"/></symbol><symbol id="arrow-focus" viewBox="0 0 69 32"><path d="M68.081 17.414a2 2 0 0 0 0-2.829L55.353 1.857a2 2 0 1 0-2.828 2.828l11.314 11.314-11.314 11.314a2 2 0 1 0 2.828 2.828l12.728-12.728zM0 18h66.667v-4H0v4z"/></symbol><symbol id="arrow-hover" viewBox="0 0 102 32"><path d="M101.414 17.414a2 2 0 0 0 0-2.828L88.686 1.858a2 2 0 1 0-2.828 2.828L97.172 16 85.858 27.314a2 2 0 1 0 2.828 2.828l12.728-12.728zM0 18h100v-4H0v4z"/></symbol><symbol id="btn-arrow" viewBox="0 0 32 32"><path stroke-linejoin="round" stroke-linecap="round" stroke-width="5.333" d="M10.667 5.333 23.867 16l-13.2 10.667"/></symbol><symbol id="cross" viewBox="0 0 32 32"><path d="m17.253 16 7.369-7.369a.886.886 0 0 0-.047-1.207.89.89 0 0 0-1.206-.047L16 14.746 8.631 7.368A.892.892 0 0 0 7.369 8.63l7.378 7.369-7.378 7.369a.891.891 0 0 0-.05 1.304.89.89 0 0 0 1.304-.051l7.378-7.369 7.369 7.369a.885.885 0 0 0 1.206-.047.89.89 0 0 0 .047-1.206l-7.369-7.369z"/></symbol><symbol id="cursor-hover" viewBox="0 0 25 32"><path stroke-width="2.667" d="m8.063 2.682 14.579 13.607c2.495 2.329 1.115 6.511-2.275 6.898l-5.49.627a6.668 6.668 0 0 0-3.703 1.668L8.01 28.33c-2.574 2.317-6.676.49-6.676-2.973V5.605c0-3.498 4.172-5.311 6.729-2.924z"/></symbol><symbol id="icon-burger" viewBox="0 0 32 32"><path fill="none" stroke="#fff" style="stroke:var(--color1,#fff)" stroke-linecap="round" stroke-width="2" d="M6 10h20M6 16h20M6 22h20"/></symbol><symbol id="mobil-blur" viewBox="0 0 25 32"><path d="m16.388 0 1.976.669 1.771.91 1.437.91 1.104 1.553.898 2.49.334 1.848-.186.616-.289.562-.757 1.071-.154 1.259v1.259l.77.455.539.589.205.616.077.562.077 1.232.359 2.624-.154 1.66-.436 1.607-1.193 1.205-1.424 1.125-1.552.495-1.783.415-1.36 1.366-1.514 1.58-1.103 1.633-1.155.75-.949.83H.584v-3.963l.411-2.49.59-2.865.103-3.829-1.001-2.142-.616-1.901V12.88l.616-2.142.449-1.392.552-1.285 1.206-.951 1.334-.87 1.899-.536.962-.228.86-.281.667-1.339.642-1.366.975-.924 1.18-.817 1.283-.482 1.18-.268h2.515z"/></symbol><symbol id="tablet-blur" viewBox="0 0 25 32"><path d="m16.683 0 2.01.671 1.801.913 1.462.913 1.122 1.558.913 2.498.339 1.853-.189.618-.294.564-.77 1.074-.157 1.262v1.262l.783.457.548.591.209.618.078.564.078 1.235.365 2.632-.078.833-.078.833-.444 1.611-1.214 1.209-1.448 1.128-1.579.497-1.814.416-1.383 1.37-1.54 1.584-1.122 1.638-1.174.752-.966.833H.606v-3.975l.418-2.498.6-2.874.104-3.84L.71 16.651l-.626-1.907v-1.826l.626-2.149.457-1.397.561-1.289 1.227-.953 1.357-.873 1.931-.537.979-.228.874-.282.679-1.343.652-1.37.992-.927 1.2-.819 1.305-.483 1.2-.269h2.558z"/></symbol><symbol id="desktop-blur" viewBox="0 0 26 32"><path d="m17.247 0 2.088.671 1.871.913 1.519.913 1.166 1.557.949 2.497.353 1.853-.197.618-.305.564-.8 1.074-.163 1.262v1.262l.814.456.57.591.217.618.081.564.081 1.235.38 2.631-.163 1.665-.461 1.611-1.261 1.208-1.505 1.128-1.641.497-1.885.416-1.437 1.369-1.6 1.584-1.166 1.638-1.22.752-1.003.832H.543v-3.974l.434-2.497.624-2.873.108-3.84-1.058-2.148L0 14.741v-1.826l.651-2.148.475-1.396.583-1.289 1.275-.953 1.41-.873 2.007-.537 1.017-.228.908-.282.705-1.343.678-1.369 1.03-.926 1.247-.819 1.356-.483L14.589 0h2.658z"/></symbol></defs></svg>