<?xml version="1.0" encoding="utf-8"?>
<!-- Generator: Adobe Illustrator 24.3.0, SVG Export Plug-In . SVG Version: 6.00 Build 0)  -->
<svg version="1.1" id="Layer_1" xmlns="http://www.w3.org/2000/svg" xmlns:xlink="http://www.w3.org/1999/xlink" x="0px" y="0px"
	 viewBox="0 0 325.3 49.1" style="enable-background:new 0 0 325.3 49.1;" xml:space="preserve">
<style type="text/css">
	.st0{fill:#F8D24E;}
</style>
<ellipse class="st0" cx="245.3" cy="45.4" rx="2.7" ry="2.8"/>
<ellipse class="st0" cx="251.1" cy="41.7" rx="2.7" ry="2.8"/>
<ellipse class="st0" cx="257.8" cy="37.5" rx="2.7" ry="2.8"/>
<ellipse class="st0" cx="264" cy="33.8" rx="2.7" ry="2.8"/>
<ellipse class="st0" cx="260.4" cy="43.5" rx="2.7" ry="2.8"/>
<ellipse class="st0" cx="266.2" cy="39.8" rx="2.7" ry="2.8"/>
<ellipse class="st0" cx="272.9" cy="35.7" rx="2.7" ry="2.8"/>
<ellipse class="st0" cx="279.1" cy="32" rx="2.7" ry="2.8"/>
<ellipse class="st0" cx="273.3" cy="42.1" rx="2.7" ry="2.8"/>
<ellipse class="st0" cx="279.1" cy="38.4" rx="2.7" ry="2.8"/>
<ellipse class="st0" cx="285.7" cy="34.3" rx="2.7" ry="2.8"/>
<ellipse class="st0" cx="292" cy="30.6" rx="2.7" ry="2.8"/>
<ellipse class="st0" cx="285.7" cy="40.3" rx="2.7" ry="2.8"/>
<ellipse class="st0" cx="291.5" cy="36.6" rx="2.7" ry="2.8"/>
<ellipse class="st0" cx="298.2" cy="32.4" rx="2.7" ry="2.8"/>
<ellipse class="st0" cx="304.4" cy="28.7" rx="2.7" ry="2.8"/>
<ellipse class="st0" cx="289.7" cy="45.4" rx="2.7" ry="2.8"/>
<ellipse class="st0" cx="295.5" cy="41.7" rx="2.7" ry="2.8"/>
<ellipse class="st0" cx="303.5" cy="45.8" rx="2.7" ry="2.8"/>
<ellipse class="st0" cx="302.2" cy="37.5" rx="2.7" ry="2.8"/>
<ellipse class="st0" cx="310.2" cy="41.7" rx="2.7" ry="2.8"/>
<ellipse class="st0" cx="316.4" cy="45.8" rx="2.7" ry="2.8"/>
<ellipse class="st0" cx="308.4" cy="33.8" rx="2.7" ry="2.8"/>
<ellipse class="st0" cx="316.4" cy="38" rx="2.7" ry="2.8"/>
<ellipse class="st0" cx="322.6" cy="42.1" rx="2.7" ry="2.8"/>
<ellipse class="st0" cx="218.2" cy="14.8" rx="2.7" ry="2.8"/>
<ellipse class="st0" cx="224" cy="11.1" rx="2.7" ry="2.8"/>
<ellipse class="st0" cx="230.7" cy="6.9" rx="2.7" ry="2.8"/>
<ellipse class="st0" cx="236.9" cy="3.2" rx="2.7" ry="2.8"/>
<ellipse class="st0" cx="207.1" cy="14.4" rx="2.7" ry="2.8"/>
<ellipse class="st0" cx="212.9" cy="10.7" rx="2.7" ry="2.8"/>
<ellipse class="st0" cx="219.6" cy="6.5" rx="2.7" ry="2.8"/>
<ellipse class="st0" cx="225.8" cy="2.8" rx="2.7" ry="2.8"/>
<ellipse class="st0" cx="232" cy="45.4" rx="2.7" ry="2.8"/>
<ellipse class="st0" cx="237.8" cy="41.7" rx="2.7" ry="2.8"/>
<ellipse class="st0" cx="244.4" cy="37.5" rx="2.7" ry="2.8"/>
<ellipse class="st0" cx="250.7" cy="33.8" rx="2.7" ry="2.8"/>
<ellipse class="st0" cx="224.9" cy="42.6" rx="2.7" ry="2.8"/>
<ellipse class="st0" cx="230.7" cy="38.9" rx="2.7" ry="2.8"/>
<ellipse class="st0" cx="237.3" cy="34.7" rx="2.7" ry="2.8"/>
<ellipse class="st0" cx="243.5" cy="31" rx="2.7" ry="2.8"/>
<ellipse class="st0" cx="227.6" cy="32.9" rx="2.7" ry="2.8"/>
<ellipse class="st0" cx="233.3" cy="29.2" rx="2.7" ry="2.8"/>
<ellipse class="st0" cx="240" cy="25" rx="2.7" ry="2.8"/>
<ellipse class="st0" cx="246.2" cy="21.3" rx="2.7" ry="2.8"/>
<ellipse class="st0" cx="227.6" cy="16.7" rx="2.7" ry="2.8"/>
<ellipse class="st0" cx="233.3" cy="13" rx="2.7" ry="2.8"/>
<ellipse class="st0" cx="240" cy="8.8" rx="2.7" ry="2.8"/>
<ellipse class="st0" cx="246.2" cy="5.1" rx="2.7" ry="2.8"/>
<ellipse class="st0" cx="226.2" cy="25.5" rx="2.7" ry="2.8"/>
<ellipse class="st0" cx="232" cy="21.8" rx="2.7" ry="2.8"/>
<ellipse class="st0" cx="238.7" cy="17.6" rx="2.7" ry="2.8"/>
<ellipse class="st0" cx="244.9" cy="13.9" rx="2.7" ry="2.8"/>
<ellipse class="st0" cx="198.2" cy="12" rx="2.7" ry="2.8"/>
<ellipse class="st0" cx="204" cy="8.3" rx="2.7" ry="2.8"/>
<ellipse class="st0" cx="210.7" cy="4.2" rx="2.7" ry="2.8"/>
<path class="st0" d="M210.2,14.8c1.5,0,2.7-1.2,2.7-2.8s-1.2-2.8-2.7-2.8s-2.7,1.2-2.7,2.8S208.8,14.8,210.2,14.8z"/>
<ellipse class="st0" cx="85" cy="33.1" rx="2.7" ry="2.8"/>
<ellipse class="st0" cx="90.2" cy="28.4" rx="2.7" ry="2.8"/>
<ellipse class="st0" cx="96.3" cy="23.2" rx="2.7" ry="2.8"/>
<ellipse class="st0" cx="102" cy="18.5" rx="2.7" ry="2.8"/>
<ellipse class="st0" cx="5.9" cy="28.9" rx="2.7" ry="2.8"/>
<ellipse class="st0" cx="12.7" cy="24.7" rx="2.7" ry="2.8"/>
<ellipse class="st0" cx="19" cy="20.9" rx="2.7" ry="2.8"/>
<ellipse class="st0" cx="2.7" cy="39.7" rx="2.7" ry="2.8"/>
<ellipse class="st0" cx="8.6" cy="35.9" rx="2.7" ry="2.8"/>
<ellipse class="st0" cx="15.4" cy="31.7" rx="2.7" ry="2.8"/>
<ellipse class="st0" cx="21.8" cy="28" rx="2.7" ry="2.8"/>
<ellipse class="st0" cx="9.5" cy="43.5" rx="2.7" ry="2.8"/>
<ellipse class="st0" cx="15.4" cy="39.7" rx="2.7" ry="2.8"/>
<ellipse class="st0" cx="22.2" cy="35.5" rx="2.7" ry="2.8"/>
<ellipse class="st0" cx="28.6" cy="31.7" rx="2.7" ry="2.8"/>
<ellipse class="st0" cx="17.2" cy="45.8" rx="2.7" ry="2.8"/>
<ellipse class="st0" cx="23.1" cy="42.1" rx="2.7" ry="2.8"/>
<ellipse class="st0" cx="29.9" cy="37.8" rx="2.7" ry="2.8"/>
<ellipse class="st0" cx="36.3" cy="34.1" rx="2.7" ry="2.8"/>
<ellipse class="st0" cx="27.2" cy="46.3" rx="2.7" ry="2.8"/>
<ellipse class="st0" cx="33.1" cy="42.5" rx="2.7" ry="2.8"/>
<ellipse class="st0" cx="39.9" cy="38.3" rx="2.7" ry="2.8"/>
<ellipse class="st0" cx="46.2" cy="34.5" rx="2.7" ry="2.8"/>
<ellipse class="st0" cx="39" cy="46.3" rx="2.7" ry="2.8"/>
<ellipse class="st0" cx="44.9" cy="42.5" rx="2.7" ry="2.8"/>
<ellipse class="st0" cx="51.7" cy="38.3" rx="2.7" ry="2.8"/>
<ellipse class="st0" cx="58" cy="34.5" rx="2.7" ry="2.8"/>
<ellipse class="st0" cx="49" cy="45.8" rx="2.7" ry="2.8"/>
<ellipse class="st0" cx="54.8" cy="42.1" rx="2.7" ry="2.8"/>
<ellipse class="st0" cx="61.6" cy="37.8" rx="2.7" ry="2.8"/>
<ellipse class="st0" cx="68" cy="34.1" rx="2.7" ry="2.8"/>
<ellipse class="st0" cx="60.3" cy="45.3" rx="2.7" ry="2.8"/>
<ellipse class="st0" cx="66.2" cy="41.6" rx="2.7" ry="2.8"/>
<ellipse class="st0" cx="73" cy="37.4" rx="2.7" ry="2.8"/>
<ellipse class="st0" cx="79.3" cy="33.6" rx="2.7" ry="2.8"/>
<ellipse class="st0" cx="70.7" cy="33.1" rx="2.7" ry="2.8"/>
<ellipse class="st0" cx="76.6" cy="29.4" rx="2.7" ry="2.8"/>
<ellipse class="st0" cx="83.4" cy="25.1" rx="2.7" ry="2.8"/>
<ellipse class="st0" cx="89.7" cy="21.4" rx="2.7" ry="2.8"/>
</svg>
