<?xml version="1.0" encoding="utf-8"?>
<!-- Generator: Adobe Illustrator 24.3.0, SVG Export Plug-In . SVG Version: 6.00 Build 0)  -->
<svg version="1.1" id="Layer_1" xmlns="http://www.w3.org/2000/svg" xmlns:xlink="http://www.w3.org/1999/xlink" x="0px" y="0px"
	 viewBox="0 0 477 590" style="enable-background:new 0 0 477 590;" xml:space="preserve">
<style type="text/css">
	.st0{fill:#FFFFFF;}
</style>
<path class="st0" d="M318,0l38.5,12.4L391,29.2L419,46l21.5,28.7l17.5,46l6.5,34.2l-3.6,11.4l-5.6,10.4l-14.8,19.8l-3,23.3v23.3
	l15,8.4l10.5,10.9l4,11.4l1.5,10.4L470,307l7,48.5l-1.5,15.3l-1.5,15.3l-4.2,14.9l-4.2,14.9L453.9,427l-11.6,11.1l-27.8,20.8
	l-30.2,9.2l-34.8,7.7L323,501l-29.5,29.2L272,560.4l-22.5,13.9L231,589.6H10v-39.1v-34.2l8-46l11.5-53l2-70.8L12,307L0,271.8v-33.7
	l12-39.6l8.8-25.7L31.5,149L55,131.4l26-16.1l37-9.9l18.8-4.2l16.8-5.2l13-24.8L179,46L198,29l23-15.1L246,5l23-5h25.5H318z"/>
</svg>
