<svg
  aria-hidden="true"
  style="position: absolute; width: 0; height: 0; overflow: hidden;"
  version="1.1"
  xmlns="http://www.w3.org/2000/svg"
  xmlns:xlink="http://www.w3.org/1999/xlink"
>
<defs>
<symbol id="facebook" viewBox="0 0 16 32">
<path
        d="M14.143 15.972h-4.034v14.865h-6.112v-14.865h-2.907v-5.224h2.907v-3.381c0-2.418 1.142-6.203 6.166-6.203l4.527 0.019v5.071h-3.285c-0.539 0-1.296 0.271-1.296 1.424v3.075h4.567l-0.534 5.219z"
      />
</symbol>
<symbol id="github" viewBox="0 0 32 32">
<path
        d="M16 0c-8.788 0-16 7.212-16 16 0 7.499 5.262 14.312 12.25 16v-5.293c-0.692 0.152-1.33 0.156-2.034-0.052-0.946-0.279-1.714-0.909-2.284-1.869-0.364-0.613-1.008-1.278-1.68-1.23l-0.165-1.868c1.453-0.124 2.711 0.886 3.457 2.14 0.332 0.558 0.713 0.884 1.203 1.029 0.473 0.14 0.982 0.072 1.574-0.137 0.149-1.186 0.692-1.63 1.102-2.255-4.167-0.622-5.828-2.833-6.488-4.579-0.874-2.317-0.405-5.212 1.14-7.041 0.030-0.036 0.084-0.129 0.063-0.194-0.708-2.139 0.155-3.909 0.187-4.097 0.817 0.242 0.95-0.243 3.551 1.337l0.449 0.27c0.188 0.112 0.129 0.048 0.317 0.034 1.086-0.295 2.23-0.458 3.358-0.472 1.136 0.015 2.273 0.178 3.404 0.484l0.145 0.015c-0.013-0.002 0.040-0.009 0.127-0.062 3.248-1.968 3.132-1.324 4.003-1.608 0.032 0.188 0.883 1.987 0.182 4.099-0.095 0.291 2.816 2.956 1.203 7.235-0.659 1.746-2.32 3.957-6.487 4.578 0.534 0.814 1.176 1.248 1.173 2.928v6.608c6.988-1.688 12.25-8.501 12.25-16 0-8.788-7.212-16-16-16z"
      />
</symbol>
<symbol id="telegram" viewBox="0 0 44 32">
<path
        d="M17.343 21.048l-0.675 8.86c0.966 0 1.384-0.387 1.885-0.852l4.527-4.038 9.381 6.412c1.72 0.895 2.933 0.424 3.397-1.477l6.157-26.929 0.002-0.002c0.546-2.374-0.92-3.302-2.596-2.72l-36.194 12.933c-2.47 0.895-2.433 2.18-0.42 2.762l9.253 2.686 21.494-12.552c1.012-0.625 1.931-0.279 1.175 0.346l-17.386 14.57z"
      />
</symbol>
<symbol id="arrow-default" viewBox="0 0 82 32">
<path
        d="M81.414 17.414c0.781-0.781 0.781-2.047 0-2.828l-12.728-12.728c-0.781-0.781-2.047-0.781-2.828 0s-0.781 2.047 0 2.828l11.314 11.314-11.314 11.314c-0.781 0.781-0.781 2.047 0 2.828s2.047 0.781 2.828 0l12.728-12.728zM0 18h80v-4h-80v4z"
      />
</symbol>
<symbol id="arrow-focus" viewBox="0 0 69 32">
<path
        d="M68.081 17.414c0.781-0.781 0.781-2.047 0-2.829l-12.728-12.728c-0.781-0.781-2.047-0.781-2.828 0s-0.781 2.047 0 2.828l11.314 11.314-11.314 11.314c-0.781 0.781-0.781 2.047 0 2.828s2.047 0.781 2.828 0l12.728-12.728zM0 18h66.667v-4h-66.667v4z"
      />
</symbol>
<symbol id="arrow-hover" viewBox="0 0 102 32">
<path
        d="M101.414 17.414c0.781-0.781 0.781-2.047 0-2.828l-12.728-12.728c-0.781-0.781-2.047-0.781-2.828 0s-0.781 2.047 0 2.828l11.314 11.314-11.314 11.314c-0.781 0.781-0.781 2.047 0 2.828s2.047 0.781 2.828 0l12.728-12.728zM0 18h100v-4h-100v4z"
      />
</symbol>
<symbol id="btn-arrow" viewBox="0 0 32 32">
<path
        stroke-linejoin="round"
        stroke-linecap="round"
        stroke-miterlimit="4"
        stroke-width="5.3333"
        d="M10.667 5.333l13.2 10.667-13.2 10.667"
      />
</symbol>
<symbol id="cross" viewBox="0 0 32 32">
<path
        d="M17.253 16l7.369-7.369c0.146-0.17 0.222-0.389 0.213-0.613s-0.101-0.436-0.26-0.594c-0.158-0.158-0.37-0.251-0.594-0.26s-0.442 0.067-0.612 0.213l-7.369 7.369-7.369-7.378c-0.167-0.167-0.394-0.261-0.631-0.261s-0.464 0.094-0.631 0.261c-0.167 0.167-0.261 0.394-0.261 0.631s0.094 0.464 0.261 0.631l7.378 7.369-7.378 7.369c-0.093 0.080-0.169 0.178-0.222 0.288s-0.083 0.23-0.088 0.353c-0.005 0.123 0.016 0.245 0.061 0.359s0.112 0.218 0.199 0.304c0.087 0.087 0.19 0.154 0.304 0.199s0.236 0.065 0.359 0.060c0.122-0.005 0.243-0.035 0.353-0.088s0.208-0.129 0.288-0.222l7.378-7.369 7.369 7.369c0.17 0.146 0.389 0.222 0.612 0.213s0.436-0.101 0.594-0.26c0.158-0.158 0.251-0.37 0.26-0.594s-0.067-0.442-0.213-0.612l-7.369-7.369z"
      />
</symbol>
<symbol id="cursor-hover" viewBox="0 0 25 32">
<path
        stroke-linejoin="miter"
        stroke-linecap="butt"
        stroke-miterlimit="4"
        stroke-width="2.6667"
        d="M8.063 2.682l14.579 13.607c2.495 2.329 1.115 6.511-2.275 6.898l-5.49 0.627c-1.378 0.157-2.672 0.741-3.703 1.668l-3.164 2.848c-2.574 2.317-6.676 0.49-6.676-2.973v-19.752c0-3.498 4.172-5.311 6.729-2.924z"
      />
</symbol>
<symbol id="icon-burger" viewBox="0 0 32 32">
<path
        fill="none"
        stroke="#fff"
        style="stroke: var(--color1, #fff)"
        stroke-linejoin="miter"
        stroke-linecap="round"
        stroke-miterlimit="4"
        stroke-width="2"
        d="M6 10h20"
      />
<path
        fill="none"
        stroke="#fff"
        style="stroke: var(--color1, #fff)"
        stroke-linejoin="miter"
        stroke-linecap="round"
        stroke-miterlimit="4"
        stroke-width="2"
        d="M6 16h20"
      />
<path
        fill="none"
        stroke="#fff"
        style="stroke: var(--color1, #fff)"
        stroke-linejoin="miter"
        stroke-linecap="round"
        stroke-miterlimit="4"
        stroke-width="2"
        d="M6 22h20"
      />
</symbol>
<symbol id="mobil-blur" viewBox="0 0 25 32">
<path d="M16.388 0l1.976 0.669 1.771 0.91 1.437 0.91 1.104 1.553 0.898 2.49 0.334 1.848-0.186 0.616-0.289 0.562-0.757 1.071-0.154 1.259v1.259l0.77 0.455 0.539 0.589 0.205 0.616 0.077 0.562 0.077 1.232 0.359 2.624-0.154 1.66-0.436 1.607-1.193 1.205-1.424 1.125-1.552 0.495-1.783 0.415-1.36 1.366-1.514 1.58-1.103 1.633-1.155 0.75-0.949 0.83h-11.342v-3.963l0.411-2.49 0.59-2.865 0.103-3.829-1.001-2.142-0.616-1.901v-1.821l0.616-2.142 0.449-1.392 0.552-1.285 1.206-0.951 1.334-0.87 1.899-0.536 0.962-0.228 0.86-0.281 0.667-1.339 0.642-1.366 0.975-0.924 1.18-0.817 1.283-0.482 1.18-0.268h2.515z"></path>
</symbol>
<symbol id="tablet-blur" viewBox="0 0 25 32">
<path d="M16.683 0l2.010 0.671 1.801 0.913 1.462 0.913 1.122 1.558 0.913 2.498 0.339 1.853-0.189 0.618-0.294 0.564-0.77 1.074-0.157 1.262v1.262l0.783 0.457 0.548 0.591 0.209 0.618 0.078 0.564 0.078 1.235 0.365 2.632-0.078 0.833-0.078 0.833-0.444 1.611-1.214 1.209-1.448 1.128-1.579 0.497-1.814 0.416-1.383 1.37-1.54 1.584-1.122 1.638-1.174 0.752-0.966 0.833h-11.535v-3.975l0.418-2.498 0.6-2.874 0.104-3.84-1.018-2.149-0.626-1.907v-1.826l0.626-2.149 0.457-1.397 0.561-1.289 1.227-0.953 1.357-0.873 1.931-0.537 0.979-0.228 0.874-0.282 0.679-1.343 0.652-1.37 0.992-0.927 1.2-0.819 1.305-0.483 1.2-0.269h2.558z"></path>
</symbol>
<symbol id="desktop-blur" viewBox="0 0 26 32">
<path d="M17.247 0l2.088 0.671 1.871 0.913 1.519 0.913 1.166 1.557 0.949 2.497 0.353 1.853-0.197 0.618-0.305 0.564-0.8 1.074-0.163 1.262v1.262l0.814 0.456 0.57 0.591 0.217 0.618 0.081 0.564 0.081 1.235 0.38 2.631-0.163 1.665-0.461 1.611-1.261 1.208-1.505 1.128-1.641 0.497-1.885 0.416-1.437 1.369-1.6 1.584-1.166 1.638-1.22 0.752-1.003 0.832h-11.986v-3.974l0.434-2.497 0.624-2.873 0.108-3.84-1.058-2.148-0.651-1.906v-1.826l0.651-2.148 0.475-1.396 0.583-1.289 1.275-0.953 1.41-0.873 2.007-0.537 1.017-0.228 0.908-0.282 0.705-1.343 0.678-1.369 1.030-0.926 1.247-0.819 1.356-0.483 1.247-0.269h2.658z"></path>
</symbol>
</defs>
</svg>
